# xmcd
#
# Track frame offsets:
#   150
#   19296
#   36411
#   50210
#   63870
#   77864
#   91790
#   106533
#   119026
#   137331
#   154379
#   166309
#   177859
#   195712
#
# Disc length: 2789 seconds
#
# Revision: 0
# Processed by: cddbd v1.5.2PL0 Copyright (c) Steve Scherf et al.
# Submitted via: uFREEDB ActiveX Control 1.5
#
DISCID=ba0ae30e
DTITLE=Grupo minuano - Homens do pampa
DYEAR=1900
DGENRE=Alternative
TTITLE0=Não leva a mal, eu sou bagual
TTITLE1=Encontro do pala velho
TTITLE2=Da vaneira pra vaneira
TTITLE3=No costado do bugio
TTITLE4=Homens do pampa
TTITLE5=Gaiteiro amigo
TTITLE6=Sapecando uma vaneira
TTITLE7=Brodo de galinha
TTITLE8=Naturaleza
TTITLE9=Vaneira pros chapeludo
TTITLE10=Fandango campeiro
TTITLE11=Uma pro santo
TTITLE12=Minha vida em suas mãos
TTITLE13=Deu carunho no namoro
EXTD=
EXTT0=
EXTT1=
EXTT2=
EXTT3=
EXTT4=
EXTT5=
EXTT6=
EXTT7=
EXTT8=
EXTT9=
EXTT10=
EXTT11=
EXTT12=
EXTT13=
PLAYORDER=
